<svg id="visual" viewBox="0 0 900 450" width="900" height="450" xmlns="http://www.w3.org/2000/svg" xmlns:xlink="http://www.w3.org/1999/xlink" version="1.1"><path d="M0 315L21.5 307.5C43 300 86 285 128.8 287.2C171.7 289.3 214.3 308.7 257.2 321.2C300 333.7 343 339.3 385.8 327.3C428.7 315.3 471.3 285.7 514.2 294.7C557 303.7 600 351.3 642.8 355.3C685.7 359.3 728.3 319.7 771.2 313C814 306.3 857 332.7 878.5 345.8L900 359L900 451L878.5 451C857 451 814 451 771.2 451C728.3 451 685.7 451 642.8 451C600 451 557 451 514.2 451C471.3 451 428.7 451 385.8 451C343 451 300 451 257.2 451C214.3 451 171.7 451 128.8 451C86 451 43 451 21.5 451L0 451Z" fill="#84d0e2" stroke-linecap="round" stroke-linejoin="miter"></path></svg>