<svg id="visual" viewBox="0 0 900 450" width="900" height="450" xmlns="http://www.w3.org/2000/svg" xmlns:xlink="http://www.w3.org/1999/xlink" version="1.1"><path d="M0 326L21.5 333.7C43 341.3 86 356.7 128.8 369.5C171.7 382.3 214.3 392.7 257.2 383.7C300 374.7 343 346.3 385.8 328.7C428.7 311 471.3 304 514.2 310C557 316 600 335 642.8 344.3C685.7 353.7 728.3 353.3 771.2 349.2C814 345 857 337 878.5 333L900 329L900 451L878.5 451C857 451 814 451 771.2 451C728.3 451 685.7 451 642.8 451C600 451 557 451 514.2 451C471.3 451 428.7 451 385.8 451C343 451 300 451 257.2 451C214.3 451 171.7 451 128.8 451C86 451 43 451 21.5 451L0 451Z" fill="#84d0e2" stroke-linecap="round" stroke-linejoin="miter"></path></svg>