<svg id="visual" viewBox="0 0 900 450" width="900" height="450" xmlns="http://www.w3.org/2000/svg" xmlns:xlink="http://www.w3.org/1999/xlink" version="1.1"><path d="M0 265L21.5 274.2C43 283.3 86 301.7 128.8 327C171.7 352.3 214.3 384.7 257.2 373.3C300 362 343 307 385.8 281.2C428.7 255.3 471.3 258.7 514.2 263.3C557 268 600 274 642.8 265C685.7 256 728.3 232 771.2 238.3C814 244.7 857 281.3 878.5 299.7L900 318L900 451L878.5 451C857 451 814 451 771.2 451C728.3 451 685.7 451 642.8 451C600 451 557 451 514.2 451C471.3 451 428.7 451 385.8 451C343 451 300 451 257.2 451C214.3 451 171.7 451 128.8 451C86 451 43 451 21.5 451L0 451Z" fill="#84d0e2" stroke-linecap="round" stroke-linejoin="miter"></path></svg>