<svg id="visual" viewBox="0 0 900 450" width="900" height="450" xmlns="http://www.w3.org/2000/svg" xmlns:xlink="http://www.w3.org/1999/xlink" version="1.1"><path d="M0 419L21.5 397.8C43 376.7 86 334.3 128.8 331C171.7 327.7 214.3 363.3 257.2 366C300 368.7 343 338.3 385.8 326.2C428.7 314 471.3 320 514.2 339C557 358 600 390 642.8 392C685.7 394 728.3 366 771.2 342.8C814 319.7 857 301.3 878.5 292.2L900 283L900 451L878.5 451C857 451 814 451 771.2 451C728.3 451 685.7 451 642.8 451C600 451 557 451 514.2 451C471.3 451 428.7 451 385.8 451C343 451 300 451 257.2 451C214.3 451 171.7 451 128.8 451C86 451 43 451 21.5 451L0 451Z" fill="#84d0e2" stroke-linecap="round" stroke-linejoin="miter"></path></svg>