<svg id="visual" viewBox="0 0 900 450" width="900" height="450" xmlns="http://www.w3.org/2000/svg" xmlns:xlink="http://www.w3.org/1999/xlink" version="1.1"><path d="M0 409L21.5 397.7C43 386.3 86 363.7 128.8 339.3C171.7 315 214.3 289 257.2 282.8C300 276.7 343 290.3 385.8 285.2C428.7 280 471.3 256 514.2 256.7C557 257.3 600 282.7 642.8 312.8C685.7 343 728.3 378 771.2 393.2C814 408.3 857 403.7 878.5 401.3L900 399L900 451L878.5 451C857 451 814 451 771.2 451C728.3 451 685.7 451 642.8 451C600 451 557 451 514.2 451C471.3 451 428.7 451 385.8 451C343 451 300 451 257.2 451C214.3 451 171.7 451 128.8 451C86 451 43 451 21.5 451L0 451Z" fill="#84d0e2" stroke-linecap="round" stroke-linejoin="miter"></path></svg>